<svg width="30" height="30" viewBox="0 0 30 30" fill="none" xmlns="http://www.w3.org/2000/svg">
<path d="M14.641 10.0136C11.9576 10.0136 9.76777 12.2034 9.76777 14.8868C9.76777 17.5702 11.9576 19.76 14.641 19.76C17.3243 19.76 19.5142 17.5702 19.5142 14.8868C19.5142 12.2034 17.3243 10.0136 14.641 10.0136ZM29.2569 14.8868C29.2569 12.8688 29.2752 10.8691 29.1619 8.85472C29.0485 6.515 28.5148 4.4385 26.8039 2.72758C25.0893 1.013 23.0164 0.482906 20.6767 0.369576C18.6587 0.256246 16.659 0.274525 14.6446 0.274525C12.6266 0.274525 10.6269 0.256246 8.61254 0.369576C6.27281 0.482906 4.19631 1.01666 2.48539 2.72758C0.770812 4.44215 0.240719 6.515 0.127389 8.85472C0.0140583 10.8727 0.0323374 12.8725 0.0323374 14.8868C0.0323374 16.9012 0.0140583 18.9046 0.127389 20.9189C0.240719 23.2586 0.774468 25.3351 2.48539 27.0461C4.19997 28.7606 6.27281 29.2907 8.61254 29.4041C10.6305 29.5174 12.6303 29.4991 14.6446 29.4991C16.6626 29.4991 18.6624 29.5174 20.6767 29.4041C23.0164 29.2907 25.093 28.757 26.8039 27.0461C28.5184 25.3315 29.0485 23.2586 29.1619 20.9189C29.2789 18.9046 29.2569 16.9048 29.2569 14.8868ZM14.641 22.3849C10.4916 22.3849 7.1429 19.0362 7.1429 14.8868C7.1429 10.7375 10.4916 7.38874 14.641 7.38874C18.7903 7.38874 22.1391 10.7375 22.1391 14.8868C22.1391 19.0362 18.7903 22.3849 14.641 22.3849ZM22.4461 8.83279C21.4773 8.83279 20.695 8.05044 20.695 7.08165C20.695 6.11286 21.4773 5.33052 22.4461 5.33052C23.4149 5.33052 24.1973 6.11286 24.1973 7.08165C24.1976 7.3117 24.1525 7.53954 24.0646 7.75212C23.9767 7.96471 23.8477 8.15787 23.685 8.32054C23.5224 8.4832 23.3292 8.61218 23.1166 8.70008C22.904 8.78798 22.6762 8.83308 22.4461 8.83279Z" fill="#EBEBEB"/>
</svg>
