<svg width="30" height="30" viewBox="0 0 30 30" fill="none" xmlns="http://www.w3.org/2000/svg">
<path fill-rule="evenodd" clip-rule="evenodd" d="M6.52657 0.727051C4.80404 0.727051 3.15205 1.41133 1.93403 2.62934C0.716013 3.84736 0.0317383 5.49935 0.0317383 7.22189V23.459C0.0317383 25.1815 0.716013 26.8335 1.93403 28.0515C3.15205 29.2695 4.80404 29.9538 6.52657 29.9538H22.7637C24.4862 29.9538 26.1382 29.2695 27.3562 28.0515C28.5742 26.8335 29.2585 25.1815 29.2585 23.459V7.22189C29.2585 5.49935 28.5742 3.84736 27.3562 2.62934C26.1382 1.41133 24.4862 0.727051 22.7637 0.727051H6.52657ZM23.3027 12.1823C23.5417 11.824 23.6286 11.3855 23.5443 10.9631C23.4599 10.5408 23.2113 10.1692 22.853 9.93023C22.4947 9.69123 22.0561 9.60435 21.6338 9.6887C21.2114 9.77304 20.8399 10.0217 20.6009 10.38C20.0261 11.1431 19.4237 11.8738 18.719 12.5233C17.9023 13.2767 17.0758 13.8417 16.2705 14.1762L16.2575 11.0912C16.2109 10.6962 16.0211 10.3321 15.7239 10.0678C15.4267 9.80351 15.0428 9.6575 14.6451 9.65745C13.7651 9.70779 13.0214 10.3573 13.0214 11.2812V18.3816C9.85843 17.5048 8.15028 14.436 8.15028 11.2812C8.15028 10.8505 7.97921 10.4375 7.67471 10.133C7.3702 9.82852 6.95721 9.65745 6.52657 9.65745C6.09594 9.65745 5.68294 9.82852 5.37844 10.133C5.07393 10.4375 4.90287 10.8505 4.90287 11.2812C4.90287 17.1785 8.97837 21.8353 14.6451 21.8353C15.0758 21.8353 15.4887 21.6642 15.7933 21.3597C16.0978 21.0552 16.2688 20.6422 16.2688 20.2116V17.6737C18.4316 17.8458 20.5294 19.3737 21.3121 20.9374C21.4033 21.1348 21.5332 21.3118 21.6941 21.4581C21.855 21.6043 22.0437 21.7168 22.2489 21.7887C22.4541 21.8606 22.6717 21.8906 22.8887 21.8769C23.1057 21.8632 23.3178 21.806 23.5123 21.7087C23.7067 21.6115 23.8797 21.4762 24.0209 21.3108C24.1621 21.1454 24.2687 20.9534 24.3342 20.746C24.3998 20.5387 24.4231 20.3203 24.4026 20.1038C24.3822 19.8873 24.3185 19.6772 24.2153 19.4858C23.4391 17.9319 21.9908 16.4787 20.2079 15.5304C20.4483 15.3339 20.6869 15.1261 20.9224 14.9101C21.817 14.0943 22.6156 13.1791 23.3027 12.1823V12.1823Z" fill="#EBEBEB"/>
</svg>
