<svg width="30" height="30" viewBox="0 0 30 30" fill="none" xmlns="http://www.w3.org/2000/svg">
<path d="M12.2183 11.5973L18.4289 15.1267L12.2183 18.6561V11.5973ZM29.2585 3.63168V26.5956C29.2585 28.3244 27.8559 29.727 26.1271 29.727H3.16318C1.43436 29.727 0.0317383 28.3244 0.0317383 26.5956V3.63168C0.0317383 1.90287 1.43436 0.500244 3.16318 0.500244H26.1271C27.8559 0.500244 29.2585 1.90287 29.2585 3.63168ZM26.5185 15.1332C26.5185 15.1332 26.5185 11.245 26.0227 9.37918C25.7487 8.34842 24.9463 7.53946 23.922 7.26546C22.0758 6.76312 14.6451 6.76312 14.6451 6.76312C14.6451 6.76312 7.21448 6.76312 5.36823 7.26546C4.34399 7.53946 3.54156 8.34842 3.26756 9.37918C2.77175 11.2385 2.77175 15.1332 2.77175 15.1332C2.77175 15.1332 2.77175 19.0214 3.26756 20.8872C3.54156 21.918 4.34399 22.6943 5.36823 22.9683C7.21448 23.4641 14.6451 23.4641 14.6451 23.4641C14.6451 23.4641 22.0758 23.4641 23.922 22.9618C24.9463 22.6878 25.7487 21.9115 26.0227 20.8807C26.5185 19.0214 26.5185 15.1332 26.5185 15.1332Z" fill="#EBEBEB"/>
</svg>
